<svg xmlns:xlink="http://www.w3.org/1999/xlink" xmlns="http://www.w3.org/2000/svg" width="19.992" height="15.749" viewBox="0 0 19.992 15.749">
  <g id="Tracé_158" data-name="Tracé 158" transform="translate(-175.379 -168.649)" fill="#f0ab00">
    <path d="M 182.3736267089844 184.09765625 C 182.0871276855469 184.09765625 181.8126678466797 183.9882507324219 181.6198577880859 183.7973327636719 C 180.6825866699219 182.9054260253906 179.7299499511719 181.9911804199219 178.8085784912109 181.1069793701172 C 177.8873901367188 180.2229156494141 176.9348297119141 179.3087615966797 175.9981689453125 178.4174499511719 C 175.6881103515625 178.1208343505859 175.59619140625 177.712646484375 175.7517395019531 177.3250122070312 C 175.9187469482422 176.9088592529297 176.3329467773438 176.6182098388672 176.7590484619141 176.6182098388672 C 177.0225524902344 176.6182098388672 177.2691040039062 176.7247924804688 177.4723052978516 176.9264984130859 C 179.1416473388672 178.5064544677734 180.8084869384766 180.1123352050781 182.2972259521484 181.5478363037109 C 185.826171875 177.6203308105469 189.5724334716797 173.4476928710938 193.2758941650391 169.2925872802734 L 193.297607421875 169.3073120117188 L 193.2785186767578 169.2898101806641 C 193.48291015625 169.0668182373047 193.7357788085938 168.9489593505859 194.0098266601562 168.9489593505859 C 194.4144744873047 168.9489593505859 194.8038177490234 169.2159729003906 194.9786682128906 169.6133880615234 C 195.1499938964844 170.0028381347656 195.0760803222656 170.4280853271484 194.7810668945312 170.75146484375 C 191.9935913085938 173.9045104980469 189.1403045654297 177.0768280029297 186.3808135986328 180.1448669433594 C 185.4730834960938 181.1540679931641 184.5649719238281 182.1637268066406 183.6568756103516 183.1751861572266 C 183.5629425048828 183.2847595214844 183.4691925048828 183.3863067626953 183.3785095214844 183.4845581054688 C 183.2875366210938 183.5830993652344 183.2016296386719 183.6761779785156 183.1149139404297 183.7772979736328 L 183.1125946044922 183.7800140380859 L 183.1102142333984 183.7826538085938 C 182.9275207519531 183.9857788085938 182.6659088134766 184.09765625 182.3736267089844 184.09765625 Z" stroke="none"/>
    <path d="M 194.0098266601562 169.2489624023438 C 193.8364868164062 169.2489776611328 193.6570434570312 169.3208160400391 193.4996795654297 169.4925079345703 L 193.4998474121094 169.4921875 C 189.7808837890625 173.6647033691406 186.0618896484375 177.8069763183594 182.3126831054688 181.9794921875 C 180.6195068359375 180.3467864990234 178.9564819335938 178.7442321777344 177.2633514404297 177.1417999267578 C 176.56787109375 176.4465179443359 175.5095977783203 177.5349273681641 176.2049865722656 178.2001190185547 C 178.0796051025391 179.9840087890625 179.9542541503906 181.7982330322266 181.8287963867188 183.58203125 C 182.1011352539062 183.8541870117188 182.6151428222656 183.884521484375 182.8871612548828 183.58203125 C 183.0685272216797 183.3705139160156 183.2499389648438 183.1891479492188 183.4312896728516 182.9773864746094 C 187.1499938964844 178.8354187011719 190.8692474365234 174.723388671875 194.5579833984375 170.5508728027344 C 195.0658111572266 169.9968109130859 194.5692138671875 169.2489013671875 194.0098266601562 169.2489624023438 M 194.0097503662109 168.6489562988281 L 194.0097808837891 168.6489562988281 C 194.5315093994141 168.6488952636719 195.0312194824219 168.9878997802734 195.2532348632812 169.4924926757812 C 195.4736175537109 169.9933624267578 195.3804016113281 170.5386352539062 195.0040283203125 170.9521942138672 C 192.2163543701172 174.1054534912109 189.3630981445312 177.2777252197266 186.6038665771484 180.3454895019531 C 185.6969146728516 181.3538208007812 184.7896423339844 182.362548828125 183.88232421875 183.3731384277344 C 183.7856292724609 183.4857788085938 183.6907653808594 183.5885467529297 183.5989990234375 183.68798828125 C 183.5099334716797 183.7844696044922 183.4258117675781 183.8755950927734 183.3426513671875 183.9725799560547 L 183.333251953125 183.9832763671875 C 183.0963897705078 184.2466278076172 182.7466125488281 184.3976593017578 182.3736114501953 184.3976593017578 C 182.0094757080078 184.3976593017578 181.658935546875 184.2572479248047 181.4104766845703 184.0121917724609 C 180.4735717773438 183.1206207275391 179.5216064453125 182.2070465087891 178.6008605957031 181.3234252929688 C 177.6798858642578 180.4395751953125 176.7275543212891 179.5256500244141 175.7913665771484 178.634765625 C 175.3949584960938 178.2555694580078 175.2735137939453 177.7113647460938 175.4732666015625 177.2134399414062 C 175.6847076416016 176.6864166259766 176.2134094238281 176.3182830810547 176.7589569091797 176.3182067871094 C 177.1022033691406 176.3181457519531 177.4208526611328 176.4539184570312 177.6809997558594 176.7109680175781 C 179.2675170898438 178.2125396728516 180.8508758544922 179.7366638183594 182.2817535400391 181.1161804199219 C 185.7498168945312 177.2563018798828 189.4212951660156 173.1663818359375 193.0519409179688 169.0929565429688 L 193.0958099365234 169.122314453125 L 193.057373046875 169.0870971679688 C 193.3163146972656 168.8045959472656 193.654541015625 168.6489868164062 194.0097503662109 168.6489562988281 Z" stroke="none" fill="#fff"/>
  </g>
</svg>