<svg xmlns:xlink="http://www.w3.org/1999/xlink" xmlns="http://www.w3.org/2000/svg" width="26" height="26" viewBox="0 0 26 26">
  <g id="Groupe_366" data-name="Groupe 366" transform="translate(-140 -70.002)">
    <path id="Tracé_341" data-name="Tracé 341" d="M153,94.558A11.556,11.556,0,1,0,141.444,83,11.556,11.556,0,0,0,153,94.558ZM153,96a13,13,0,1,0-13-13A13,13,0,0,0,153,96Z" transform="translate(0 0)" fill="#f0ab00" fill-rule="evenodd"/>
    <path id="Tracé_342" data-name="Tracé 342" d="M339.052,140a.722.722,0,0,1,.722.722v7.222H347a.722.722,0,0,1,0,1.445h-7.944a.723.723,0,0,1-.722-.722V140.72a.722.722,0,0,1,.722-.722Z" transform="translate(-186.052 -65.663)" fill="#f0ab00" fill-rule="evenodd"/>
  </g>
</svg>