<svg xmlns:xlink="http://www.w3.org/1999/xlink" xmlns="http://www.w3.org/2000/svg" width="17.287" height="17.287" viewBox="0 0 17.287 17.287">
  <g id="Groupe_393" data-name="Groupe 393" transform="translate(-140 -70.002)">
    <path id="Tracé_341" data-name="Tracé 341" d="M148.644,86.329a7.683,7.683,0,1,0-7.683-7.683,7.683,7.683,0,0,0,7.683,7.683Zm0,.96A8.644,8.644,0,1,0,140,78.646,8.644,8.644,0,0,0,148.644,87.289Z" transform="translate(0 0)" fill="#00358c" fill-rule="evenodd"/>
    <path id="Tracé_342" data-name="Tracé 342" d="M338.81,140a.48.48,0,0,1,.48.48v4.8h4.8a.48.48,0,1,1,0,.961H338.81a.48.48,0,0,1-.48-.48v-5.282a.48.48,0,0,1,.48-.48Z" transform="translate(-190.167 -67.115)" fill="#00358c" fill-rule="evenodd"/>
  </g>
</svg>