<svg xmlns:xlink="http://www.w3.org/1999/xlink" xmlns="http://www.w3.org/2000/svg" width="22.562" height="19.3" viewBox="0 0 22.562 19.3">
  <path id="Tracé_316" data-name="Tracé 316" d="M162.269,104.7h-5.894a1.078,1.078,0,0,0,.06-.329v-1.436a1.009,1.009,0,0,0-1.017-1.017h-5.206a1.009,1.009,0,0,0-1.017,1.017v1.436a1.073,1.073,0,0,0,.06.329H143.36a1.68,1.68,0,0,0-1.676,1.706v12.836a1.673,1.673,0,0,0,1.676,1.676h18.91a1.673,1.673,0,0,0,1.676-1.676V106.41a1.679,1.679,0,0,0-1.676-1.706Zm-12.417-1.765a.332.332,0,0,1,.329-.329h5.236a.332.332,0,0,1,.329.329v1.436a.332.332,0,0,1-.329.329h-5.206a.332.332,0,0,1-.329-.329v-1.436Zm13.435,16.307a1.009,1.009,0,0,1-1.017,1.017h-18.91a1.009,1.009,0,0,1-1.017-1.017v-8.109l8.5,2.334v.927a.332.332,0,0,0,.329.329h3.291a.332.332,0,0,0,.329-.329v-.927l8.5-2.334ZM151.5,114.07v-1.346h2.6v1.346Zm11.789-3.65-8.5,2.334v-.389a.332.332,0,0,0-.329-.329h-3.291a.332.332,0,0,0-.329.329v.389l-8.5-2.334V106.41a1.009,1.009,0,0,1,1.017-1.017h18.91a1.009,1.009,0,0,1,1.017,1.017Z" transform="translate(-141.534 -101.772)" fill="#00358c" stroke="#00358c" stroke-width="0.3"/>
</svg>