<svg xmlns:xlink="http://www.w3.org/1999/xlink" xmlns="http://www.w3.org/2000/svg" width="17.759" height="17.721" viewBox="0 0 17.759 17.721">
  <path id="Tracé_318" data-name="Tracé 318" d="M151.822,99.9a.318.318,0,0,0,.15-.025l5.229-1.526a1.536,1.536,0,0,0,.65-.375l10.784-10.784a1.5,1.5,0,0,0,.45-1.051,1.4,1.4,0,0,0-.45-1.051l-2.477-2.477a1.526,1.526,0,0,0-2.127,0L153.248,93.369a1.535,1.535,0,0,0-.375.65l-1.526,5.229a.521.521,0,0,0,.125.5.493.493,0,0,0,.35.15Zm5.63-2.952L154.3,93.769l7.781-7.781,3.178,3.178Zm7.306-13.661a.484.484,0,0,1,.7,0l2.477,2.477a.484.484,0,0,1,0,.7l-1.977,1.977-3.178-3.153ZM153.724,94.62l2.852,2.852-4.028,1.176Z" transform="translate(-151.327 -82.179)" fill="#00358c"/>
</svg>