<svg xmlns:xlink="http://www.w3.org/1999/xlink" xmlns="http://www.w3.org/2000/svg" width="18.409" height="19.819" viewBox="0 0 18.409 19.819">
  <path id="Tracé_317" data-name="Tracé 317" d="M108.866,37.538a9.386,9.386,0,0,1,6.82-7.045,5.354,5.354,0,1,1,4.661,0,9.386,9.386,0,0,1,6.82,7.045,2.121,2.121,0,0,1-2.078,2.591H110.944a2.115,2.115,0,0,1-2.078-2.591Zm12.156-14.877a4.252,4.252,0,1,0,1.245,3.006A4.237,4.237,0,0,0,121.022,22.661Zm-8.173,10.457a8.273,8.273,0,0,0-2.906,4.657,1.009,1.009,0,0,0,1,1.245h14.145a1.014,1.014,0,0,0,1-1.245,8.273,8.273,0,0,0-13.24-4.657Z" transform="translate(-108.812 -20.309)" fill="#00358c"/>
</svg>