<svg xmlns:xlink="http://www.w3.org/1999/xlink" xmlns="http://www.w3.org/2000/svg" width="21.73" height="21.73" viewBox="0 0 21.73 21.73">
  <g id="Groupe_391" data-name="Groupe 391" transform="translate(-98 -28)">
    <path id="Tracé_10669" data-name="Tracé 10669" d="M153.179,53.315a.145.145,0,0,1-.1-.024c-1.618-.435-1.545-1.956-1.5-3.211a5.225,5.225,0,0,0-.072-1.545,1.925,1.925,0,0,0-.628-.821,2.683,2.683,0,0,1-.724-.893,3.23,3.23,0,0,1-.242-1.425,2.8,2.8,0,0,0-.072-.8c-.1-.41-.29-.507-.676-.676a6.477,6.477,0,0,1-.58-.29,5.733,5.733,0,0,1-.724-.555,3.348,3.348,0,0,0-.459-.362,1.713,1.713,0,0,0-.748-.314c-.072-.024-.145-.024-.217-.048-.942-.242-1.159-1.038-1.352-1.666a7.648,7.648,0,0,1-.362-2.7.363.363,0,1,1,.724.048,6.892,6.892,0,0,0,.338,2.463c.193.7.338,1.014.821,1.159.072.024.145.024.193.048a2.987,2.987,0,0,1,1.014.435,3.935,3.935,0,0,1,.483.41,3.647,3.647,0,0,0,.628.483,3.015,3.015,0,0,0,.483.241,1.58,1.58,0,0,1,1.111,1.207,4.13,4.13,0,0,1,.072.942,2.689,2.689,0,0,0,.169,1.111,2.053,2.053,0,0,0,.555.652,2.548,2.548,0,0,1,.845,1.159,5.544,5.544,0,0,1,.121,1.811c-.048.99-.024,1.714.362,2.125a1.705,1.705,0,0,1,.169-1.3,2.242,2.242,0,0,1,1.038-.652,2.329,2.329,0,0,0,.6-.314,1.414,1.414,0,0,0,.555-1.086l.024-.072a1.4,1.4,0,0,1,.773-.869c.121-.072.242-.145.338-.217a3.1,3.1,0,0,0,1.014-1.811.6.6,0,0,0-.169-.459,2.744,2.744,0,0,0-.748-.41,4.819,4.819,0,0,1-.507-.242,2.958,2.958,0,0,1-.748-.676,3.114,3.114,0,0,0-.386-.41,1.844,1.844,0,0,0-.869-.242c-.193-.024-.362-.048-.555-.072a7.768,7.768,0,0,1-.893-.29c-.266-.1-.507-.193-.748-.266a3.387,3.387,0,0,0-1.618.1c-.7.145-1.159.193-1.4-.748-.048-.169-.217-.242-.555-.338-.435-.121-1.256-.362-.966-1.473a1.741,1.741,0,0,1,1.256-1.256,1.925,1.925,0,0,1,1.328.072,5.422,5.422,0,0,1,1.062-1.859,2.278,2.278,0,0,1,2.294-.966h.169a.735.735,0,0,0-.169-.121,1.351,1.351,0,0,1-.435-.386,4.049,4.049,0,0,1-.362-.724c-.217-.507-.386-.845-.676-.893a.385.385,0,0,1-.314-.435.368.368,0,0,1,.435-.314c.724.121,1.014.8,1.231,1.328a4.309,4.309,0,0,0,.29.58,3.275,3.275,0,0,0,.266.217,1.226,1.226,0,0,1,.555.6.6.6,0,0,1-.072.58.934.934,0,0,1-.869.266h-.048c-.893-.024-1.183.024-1.714.676a3.955,3.955,0,0,0-1.014,2.028.333.333,0,0,1-.242.314.378.378,0,0,1-.386-.072,1.189,1.189,0,0,0-1.135-.241,1.064,1.064,0,0,0-.748.748c-.1.435-.024.459.459.58a1.349,1.349,0,0,1,1.086.869.855.855,0,0,0,.1.29c.072,0,.29-.048.435-.072a3.993,3.993,0,0,1,1.932-.072,4.737,4.737,0,0,1,.821.29,5.154,5.154,0,0,0,.8.266c.145.024.29.048.459.072a2.284,2.284,0,0,1,1.256.41,3.117,3.117,0,0,1,.483.507,2.115,2.115,0,0,0,.531.507l.435.217a2.856,2.856,0,0,1,.942.555,1.383,1.383,0,0,1,.41,1.014,3.784,3.784,0,0,1-1.28,2.342c-.145.121-.314.217-.435.314-.242.145-.386.241-.435.41l-.024.072a2.137,2.137,0,0,1-.845,1.5,3.913,3.913,0,0,1-.773.41,2.188,2.188,0,0,0-.748.435c-.145.169-.024.748.024,1.086.024.145.048.29.072.41a.314.314,0,0,1-.121.314c.073-.024-.024.024-.1.024Z" transform="translate(-44.7 -5.299)" fill="#00358c"/>
    <path id="Tracé_10670" data-name="Tracé 10670" d="M108.865,49.73A10.865,10.865,0,1,1,119.73,38.865,10.882,10.882,0,0,1,108.865,49.73Zm0-20.982a10.117,10.117,0,1,0,10.117,10.117,10.129,10.129,0,0,0-10.117-10.117Z" transform="translate(0)" fill="#00358c"/>
    <path id="Tracé_10671" data-name="Tracé 10671" d="M430.725,60.9a1.445,1.445,0,0,1-.821-.266,3.718,3.718,0,0,1-1.159-2.27,8.974,8.974,0,0,1-.024-1.618,4.719,4.719,0,0,0-.386-2.632,2.8,2.8,0,0,0-.459-.483c-.29-.242-.6-.507-.555-.893a.834.834,0,0,1,.386-.531,3.486,3.486,0,0,0-.7-.266c-.676-.193-1.5-.435-1.449-1.738a.374.374,0,0,1,.749.024c-.024.724.266.8.918.99a2.668,2.668,0,0,1,1.424.8.385.385,0,0,1,.072.314.391.391,0,0,1-.217.266,1.93,1.93,0,0,0-.435.241,2.651,2.651,0,0,0,.266.242,2.7,2.7,0,0,1,.628.652,5.306,5.306,0,0,1,.483,3.066,7.375,7.375,0,0,0,.024,1.473,2.715,2.715,0,0,0,.845,1.763.676.676,0,0,0,.6.1,1.151,1.151,0,0,0,.483-.435c.217-.266.435-.58.821-.555.386,0,.676.362.845.6a.365.365,0,1,1-.6.411,1.047,1.047,0,0,0-.266-.29,1.324,1.324,0,0,0-.242.266,1.714,1.714,0,0,1-.918.7.611.611,0,0,1-.314.072Z" transform="translate(-313.433 -20.901)" fill="#00358c"/>
  </g>
</svg>