<svg xmlns:xlink="http://www.w3.org/1999/xlink" xmlns="http://www.w3.org/2000/svg" width="17.534" height="17.53" viewBox="0 0 17.534 17.53">
  <path id="Tracé_10668" data-name="Tracé 10668" d="M122.555,51.788l2.008-2.016v8.408a.877.877,0,1,0,1.753,0V49.771l2.008,2.017h0a.88.88,0,1,0,1.245-1.245l-3.507-3.507a.907.907,0,0,0-1.245,0l-3.507,3.507a.88.88,0,1,0,1.245,1.245ZM133.33,57.3a.876.876,0,0,0-.877.877v3.507a.877.877,0,0,1-.877.877H119.3a.877.877,0,0,1-.877-.877V58.179a.877.877,0,1,0-1.753,0v3.507a2.63,2.63,0,0,0,2.63,2.63h12.274a2.63,2.63,0,0,0,2.63-2.63V58.179a.876.876,0,0,0-.877-.877Z" transform="translate(-116.672 -46.786)" fill="#00358c"/>
</svg>